# xmcd CD database file
#
# Track frame offsets:
#	200
#	10705
#	22032
#	39412
#	54377
#	66720
#	80525
#	96482
#	110115
#	128670
#	141145
#
# Disc length: 2056 seconds
#
# Revision: 2
# Processed by: cddbd v1.5.2PL0 Copyright (c) Steve Scherf et al.
# Submitted via: CDex 1.51
#
DISCID=9908060b
DTITLE=Auldrige, Reid and Coleman - High Time
DYEAR=1989
DGENRE=Country
TTITLE0=I'm Just a Used to Be
TTITLE1=My Own Sweet Time
TTITLE2=It's Gone
TTITLE3=Lonesome Whistle
TTITLE4=I Wish I Knew You
TTITLE5=I'm Satisfied with You
TTITLE6=Lonesome for You
TTITLE7=Blues Stay Away from Me
TTITLE8=Wanting You
TTITLE9=Shopping for Love
TTITLE10=High Time
EXTD=YEAR: 1989
EXTT0=
EXTT1=
EXTT2=
EXTT3=
EXTT4=
EXTT5=
EXTT6=
EXTT7=
EXTT8=
EXTT9=
EXTT10=
PLAYORDER=
